<?xml version='1.0' encoding='utf-8'?>
<svg xmlns="http://www.w3.org/2000/svg" width="800" height="480" viewBox="0 0 800 480">
  <rect width="800" height="480" fill="white" />

  

  
  <text id="calendar" x="8" y="42" font-family="Arial, sans-serif" font-size="48" fill="black" data-bbox-width="274" data-bbox-height="110" font-weight="700"><tspan x="8">Monday</tspan><tspan x="8" dy="1.2em">27 April</tspan></text>

  

  
  <path transform="translate(-3,170) scale(0.2)" fill="black" d="M184 24H72a32 32 0 0 0-32 32v128a32 32 0 0 0 72 32h8l-14.4 19.2a8 8 0 1 0 12.8 9.6L100 216h56l21.6 28.8a8 8 0 1 0 12.8-9.6L176 216h8a32 32 0 0 0 32-32V56a32 32 0 0 0-32-32M56 120V80h64v40Zm80-40h64v40h-64ZM72 40h112a16 16 0 0 1 16 16v8H56v-8a16 16 0 0 1 16-16m112 160H72a16 16 0 0 1-16-16v-48h144v48a16 16 0 0 1-16 16m-88-28a12 12 0 1 1-12-12a12 12 0 0 1 12 12m88 0a12 12 0 1 1-12-12a12 12 0 0 1 12 12" />

  
  <text id="trains" x="52" y="192" font-family="Arial, sans-serif" fill="black" data-bbox-width="243" data-bbox-height="280" font-size="18"><tspan x="52"><tspan font-weight="bold">Eichenau</tspan></tspan><tspan x="52" dy="1.6em" font-size="18"><tspan font-weight="bold">S4</tspan><tspan>  </tspan><tspan>15:12</tspan></tspan><tspan x="52" dy="1.1em" font-size="18"><tspan>   Zorneding</tspan></tspan><tspan x="52" dy="1.8em" font-size="18"><tspan font-weight="bold">S4</tspan><tspan>  </tspan><tspan style="text-decoration: line-through">15:09</tspan><tspan>  15:13</tspan></tspan><tspan x="52" dy="1.1em" font-size="18"><tspan>   Geltendorf</tspan></tspan><tspan x="52" dy="1.8em" font-size="18"><tspan font-weight="bold">S4</tspan><tspan>  </tspan><tspan>15:24</tspan></tspan><tspan x="52" dy="1.1em" font-size="18"><tspan>   Geltendorf</tspan></tspan><tspan x="52" dy="1.8em" font-size="18"><tspan font-weight="bold">S4</tspan><tspan>  </tspan><tspan>15:32</tspan></tspan><tspan x="52" dy="1.1em" font-size="18"><tspan>   Zorneding</tspan></tspan><tspan x="52" dy="1.8em" font-size="18"><tspan font-weight="bold">S4</tspan><tspan>  </tspan><tspan>15:44</tspan></tspan><tspan x="52" dy="1.1em" font-size="18"><tspan>   Buchenau</tspan></tspan></text>

  
  

  

  
  <text id="last_update" x="8" y="476" font-family="Arial, sans-serif" font-size="10" fill="black">Last update: 2026-04-27 15:12:44 +0200</text>
</svg>