<svg xmlns="http://www.w3.org/2000/svg" width="800" height="480" viewBox="0 0 800 480">
  <rect width="800" height="480" fill="white" />

  <!-- ═══════════════ LEFT CONTEXT RAIL (x 0–182) ═══════════════ -->

  <!-- Calendar: compact two-line date (day-of-week / day month).
       y=32 places the baseline so the ascenders of the first line stay on-screen
       (top of text ≈ y − 0.75 × font-size ≈ 32 − 21 = 11 px).
       Explicit font-size in renderer_config takes precedence over auto-fit. -->
  <text id="calendar" x="8" y="32" font-family="Arial, sans-serif" fill="black"
        data-bbox-width="168" data-bbox-height="68" />

  <!-- Analog validity-window clock: secondary, quiet — communicates freshness only.
       size_px=154 in renderer_config = 85 % of the 182 px rail width.
       x=7 centers the wider label canvas (≈168 px) within the rail. -->
  <image id="analog_clock" x="7" y="110" width="168" height="190" />

  <!-- Mascot / decorative image: anchored at the bottom-left corner of the rail. -->
  <image id="image_pool" x="10" y="350" width="130" height="130" />

  <!-- ═══════════════ MAIN CONTENT AREA (x 188–800) ═══════════════ -->

  <!-- Weather block: primary visual anchor at the top of the main area.
       Height 200 px keeps weather prominent but leaves the lower half for transport.
       Composited at runtime; x/y/width/height are read by the application service
       and injected into the weather_block renderer_config. -->
  <image id="weather_block" x="188" y="6" width="606" height="200" />

  <!-- Bold separator between weather and transport — clearly marks the zone boundary. -->
  <line x1="192" y1="212" x2="794" y2="212" stroke="#444" stroke-width="2" />

  <!-- Vertical separator between Google Calendar events and train timetable. -->
  <line x1="393" y1="216" x2="393" y2="474" stroke="#ccc" stroke-width="1" />

  <!-- Google Calendar events: upper portion of the lower-left column.
       Keep this list short enough to leave room for the waste panel beneath it.
       data-bbox-width/height drive auto font-size fitting. -->
  <text id="gcal_events" x="196" y="248" font-family="Arial, sans-serif" fill="black"
        data-bbox-width="188" data-bbox-height="132" />

  <!-- Waste collection: low-frequency follow-up panel beneath Google Calendar.
       A short three-day window keeps the narrow column readable. -->
  <text id="waste" x="196" y="398" font-family="Arial, sans-serif" fill="black"
        data-bbox-width="188" data-bbox-height="72" />

  <!-- Train icon: Phosphor Icons "train" (MIT), viewBox 0 0 256 256.
       Transform: translate(184,212) scale(0.2) places the icon top-left at ≈(192,214),
       giving an ~35×46 px icon that aligns with the timetable text to its right. -->
  <path transform="translate(395,232) scale(0.2)"
        fill="black"
        d="M184 24H72a32 32 0 0 0-32 32v128a32 32 0 0 0 72 32h8l-14.4 19.2a8 8 0 1 0 12.8 9.6L100 216h56l21.6 28.8a8 8 0 1 0 12.8-9.6L176 216h8a32 32 0 0 0 32-32V56a32 32 0 0 0-32-32M56 120V80h64v40Zm80-40h64v40h-64ZM72 40h112a16 16 0 0 1 16 16v8H56v-8a16 16 0 0 1 16-16m112 160H72a16 16 0 0 1-16-16v-48h144v48a16 16 0 0 1-16 16m-88-28a12 12 0 1 1-12-12a12 12 0 0 1 12 12m88 0a12 12 0 1 1-12-12a12 12 0 0 1 12 12"/>

  <!-- Trains: timetable-style, time · destination columns.
       x=459 leaves clear room for the train icon (right edge ≈451 px).
       y=248 gives a 36 px gap below the separator at y=212.
       Tall bbox (222 px) comfortably holds all departure rows. -->
  <text id="trains" x="459" y="248" font-family="Arial, sans-serif" fill="black"
        data-bbox-width="330" data-bbox-height="222" />

</svg>
