<svg xmlns="http://www.w3.org/2000/svg" width="800" height="480" viewBox="0 0 800 480">
  <rect width="800" height="480" fill="white" />

  <!-- ═══════════════ LEFT CONTEXT RAIL (x 0–182) ═══════════════ -->

  <!-- Calendar: compact two-line date (day-of-week / day month).
       y=32 places the baseline so the ascenders of the first line stay on-screen
       (top of text ≈ y − 0.75 × font-size ≈ 32 − 21 = 11 px).
       Explicit font-size in renderer_config takes precedence over auto-fit. -->
  <text id="calendar" x="8" y="32" font-family="Arial, sans-serif" fill="black"
        data-bbox-width="168" data-bbox-height="60" />

  <!-- Analog validity-window clock: secondary, quiet — communicates freshness only.
       size_px=60 in renderer_config keeps the face small and unobtrusive. -->
  <image id="analog_clock" x="51" y="100" width="76" height="96" />

  <!-- Mascot / decorative image: reduced and anchored below the clock. -->
  <image id="image_pool" x="22" y="212" width="130" height="130" />

  <!-- ═══════════════ MAIN CONTENT AREA (x 188–800) ═══════════════ -->

  <!-- Weather block: primary visual anchor at the top of the main area.
       Height 200 px keeps weather prominent but leaves the lower half for transport.
       Composited at runtime; x/y/width/height are read by the application service
       and injected into the weather_block renderer_config. -->
  <image id="weather_block" x="188" y="6" width="606" height="200" />

  <!-- Single thin separator between weather and transport. -->
  <line x1="192" y1="212" x2="794" y2="212" stroke="#aaa" stroke-width="1" />

  <!-- Train icon: Phosphor Icons "train" (MIT), viewBox 0 0 256 256.
       Transform: translate(184,212) scale(0.2) places the icon top-left at ≈(192,214),
       giving an ~35×46 px icon that aligns with the timetable text to its right. -->
  <path transform="translate(184,212) scale(0.2)"
        fill="black"
        d="M184 24H72a32 32 0 0 0-32 32v128a32 32 0 0 0 72 32h8l-14.4 19.2a8 8 0 1 0 12.8 9.6L100 216h56l21.6 28.8a8 8 0 1 0 12.8-9.6L176 216h8a32 32 0 0 0 32-32V56a32 32 0 0 0-32-32M56 120V80h64v40Zm80-40h64v40h-64ZM72 40h112a16 16 0 0 1 16 16v8H56v-8a16 16 0 0 1 16-16m112 160H72a16 16 0 0 1-16-16v-48h144v48a16 16 0 0 1-16 16m-88-28a12 12 0 1 1-12-12a12 12 0 0 1 12 12m88 0a12 12 0 1 1-12-12a12 12 0 0 1 12 12"/>

  <!-- Trains: timetable-style, aligned columns (line · time · destination).
       x=232 leaves room for the train icon; auto-sized to bbox.
       Tall bbox (252 px) gives all departure rows comfortable vertical space. -->
  <text id="trains" x="232" y="228" font-family="Arial, sans-serif" fill="black"
        data-bbox-width="556" data-bbox-height="242" />

</svg>
